<svg width="734" height="367" viewBox="0 0 734 367" fill="none" xmlns="http://www.w3.org/2000/svg">
<path opacity="0.5" d="M624.122 11.5317C696.934 40.656 733.333 55.2383 733.333 73.3333C733.333 91.4283 696.934 106.011 624.122 135.135L595.225 146.667L624.122 158.198C696.934 187.323 733.333 201.905 733.333 220C733.333 238.095 696.934 252.677 624.122 281.802L521.14 322.982C448.323 352.106 411.91 366.667 366.667 366.667C321.424 366.667 285.01 352.106 212.194 322.982L109.212 281.802C36.399 252.677 0 238.095 0 220C0 201.905 36.399 187.323 109.212 158.198L138.073 146.667L109.212 135.135C36.399 106.011 0 91.4283 0 73.3333C0 55.2383 36.399 40.656 109.212 11.5317L138.109 0L212.194 29.6487C285.01 58.773 321.424 73.3333 366.667 73.3333C411.91 73.3333 448.323 58.773 521.14 29.6487L595.225 0L624.122 11.5317Z" fill="#1E1E1E"/>
</svg>
